<svg width="193" height="51" viewBox="0 0 193 51" fill="none" xmlns="http://www.w3.org/2000/svg">
<g clip-path="url(#clip0_579_7033)">
<path d="M173.171 13.2096V36.9924C173.171 37.0312 173.179 37.0696 173.194 37.1054C173.209 37.1413 173.23 37.1739 173.258 37.2013C173.285 37.2287 173.318 37.2505 173.354 37.2654C173.39 37.2802 173.428 37.2878 173.467 37.2878H190.593C190.672 37.2878 190.747 37.2567 190.802 37.2013C190.858 37.1459 190.889 37.0707 190.889 36.9924V33.1109C190.889 33.0326 190.858 32.9574 190.802 32.902C190.747 32.8466 190.672 32.8154 190.593 32.8154H177.948V13.2096C177.948 13.1516 177.931 13.0947 177.899 13.0466C177.866 12.9986 177.82 12.9616 177.766 12.9408C177.73 12.9258 177.692 12.919 177.654 12.9208H173.467C173.428 12.9199 173.39 12.9267 173.355 12.9408C173.319 12.9546 173.286 12.9757 173.258 13.0027C173.231 13.0297 173.209 13.062 173.195 13.0977C173.179 13.1331 173.171 13.1711 173.171 13.2096ZM165.911 16.4149C164.798 15.1728 163.432 14.1836 161.904 13.5141C160.377 12.8445 158.724 12.5101 157.056 12.5335C149.834 12.5335 144.614 18.4116 144.614 25.1878C144.622 26.8683 144.963 28.5305 145.617 30.0786C146.271 31.6266 147.225 33.03 148.424 34.2077C149.622 35.3845 151.043 36.3123 152.602 36.9375C154.161 37.5627 155.829 37.873 157.509 37.8504C159.47 37.8955 161.417 37.4998 163.205 36.6926C164.993 35.8853 166.577 34.687 167.841 33.186L168.477 32.4348C168.503 32.4016 168.522 32.3636 168.534 32.3229C168.544 32.2821 168.545 32.2396 168.539 32.1981C168.532 32.1565 168.517 32.1167 168.495 32.0809C168.472 32.0463 168.442 32.0168 168.407 31.9941L164.817 29.8171C164.759 29.7815 164.689 29.7678 164.621 29.7785C164.554 29.7892 164.492 29.8236 164.447 29.8756L163.938 30.4549C163.135 31.3595 162.143 32.0754 161.031 32.5514C159.92 33.0273 158.717 33.2515 157.509 33.2078C155.773 33.2277 154.078 32.685 152.677 31.6608C151.276 30.6366 150.245 29.1862 149.737 27.5267H168.761C168.836 27.5272 168.909 27.4984 168.964 27.4464C169.018 27.3945 169.051 27.3233 169.054 27.2479L169.101 26.4265C169.286 22.3581 168.101 18.8873 165.909 16.4149H165.911ZM149.32 27.2245V27.3013C149.337 27.2712 149.327 27.2479 149.32 27.2245ZM149.684 22.8623C150.09 21.2183 151.039 19.7592 152.376 18.7208C153.714 17.6824 155.363 17.1253 157.056 17.1394C160.342 17.1394 163.123 19.3097 163.996 22.8623H149.684ZM131.21 42.2878L143.429 13.435C143.447 13.3901 143.455 13.3414 143.45 13.293C143.445 13.2447 143.429 13.1982 143.402 13.1578C143.375 13.1173 143.338 13.0841 143.296 13.0612C143.253 13.0382 143.205 13.0261 143.156 13.026H138.652C138.594 13.0242 138.537 13.0406 138.489 13.0727C138.439 13.1039 138.401 13.1501 138.38 13.2046L131.696 28.9557L124.445 13.2213C124.422 13.1701 124.384 13.1267 124.337 13.0957C124.29 13.0647 124.235 13.0475 124.178 13.046H119.646C119.596 13.0483 119.548 13.0622 119.505 13.0865C119.462 13.1109 119.425 13.145 119.397 13.1862C119.375 13.2289 119.363 13.2765 119.364 13.3248C119.364 13.3749 119.374 13.4216 119.397 13.4633L129.227 34.8755L126.173 42.0858C126.156 42.1305 126.15 42.1785 126.155 42.2261C126.16 42.2736 126.176 42.3193 126.202 42.3596C126.229 42.3997 126.266 42.4324 126.309 42.4548C126.35 42.478 126.398 42.4901 126.445 42.4898H130.945C131.004 42.4875 131.062 42.4668 131.109 42.4307C131.157 42.3946 131.192 42.3447 131.21 42.2878ZM115.489 37.2878C115.528 37.288 115.566 37.2804 115.601 37.2655C115.637 37.2506 115.669 37.2287 115.696 37.201C115.724 37.1739 115.746 37.1414 115.761 37.1055C115.776 37.0697 115.783 37.0312 115.783 36.9924V13.3431C115.783 13.2651 115.752 13.1902 115.697 13.1348C115.642 13.0794 115.567 13.0481 115.489 13.0477H111.254C111.215 13.0477 111.176 13.0553 111.141 13.0702C111.105 13.085 111.072 13.1068 111.045 13.1342C111.017 13.1616 110.995 13.1942 110.981 13.2301C110.966 13.2659 110.958 13.3043 110.958 13.3431V36.9907C110.958 37.0692 110.991 37.1443 111.045 37.1994C111.072 37.2271 111.105 37.2491 111.14 37.264C111.176 37.2789 111.215 37.2865 111.254 37.2862H115.486L115.489 37.2878ZM87.3056 13.0477H83.2572C83.2087 13.047 83.1609 13.0589 83.1184 13.0823C83.076 13.1057 83.0404 13.1398 83.0151 13.1812C82.9869 13.2199 82.9696 13.2654 82.965 13.3131C82.9606 13.3609 82.9681 13.4091 82.9867 13.4533L92.7563 37.1076C92.7789 37.161 92.8168 37.2066 92.8652 37.2387C92.9136 37.2708 92.9703 37.2878 93.0284 37.2878H96.793C96.8509 37.2882 96.9076 37.2712 96.9558 37.2391C97.0039 37.2069 97.0414 37.1611 97.0634 37.1076L107.364 13.435C107.387 13.3918 107.399 13.3437 107.399 13.2947C107.4 13.2461 107.387 13.1981 107.362 13.1562C107.337 13.1151 107.301 13.0813 107.258 13.0579C107.216 13.0346 107.168 13.0224 107.12 13.0226H102.551C102.494 13.0233 102.439 13.0406 102.391 13.0724C102.344 13.1041 102.307 13.1489 102.285 13.2012L94.9365 30.1577L87.5743 13.2246C87.5515 13.1717 87.5138 13.1265 87.4658 13.0945C87.4178 13.0625 87.3616 13.0451 87.3039 13.0443L87.3056 13.0477ZM78.551 15.0727C76.8148 13.3882 74.4275 12.5318 71.6129 12.5318C68.216 12.5213 64.9373 13.7779 62.4176 16.056L61.5863 16.7505C61.5531 16.7793 61.5265 16.815 61.5083 16.855C61.4902 16.8951 61.4809 16.9385 61.4811 16.9825C61.4827 17.0269 61.4945 17.0704 61.5157 17.1095C61.5368 17.1485 61.5667 17.1822 61.6029 17.2079L64.9585 19.6853C65.01 19.7211 65.0711 19.7403 65.1338 19.7403C65.1965 19.7403 65.2576 19.7211 65.3091 19.6853L65.8533 19.2797C67.3274 18.2029 68.9518 17.1378 71.6362 17.1378C73.5962 17.1378 74.7063 17.7638 75.3658 18.5568C76.0836 19.5368 76.4442 20.7337 76.3841 21.9457V22.2129C73.284 22.2129 69.5361 22.2129 66.5128 23.076C64.9188 23.4554 63.4553 24.2543 62.2741 25.3898C61.6765 26.0285 61.2114 26.7793 60.9057 27.5988C60.5999 28.4183 60.4596 29.2903 60.4928 30.1644C60.4928 34.7937 64.6046 37.8488 69.6112 37.8488C72.0486 37.9156 74.4359 37.1476 76.3824 35.6785V36.9924C76.3824 37.0707 76.4136 37.1459 76.469 37.2013C76.5244 37.2567 76.5996 37.2878 76.6779 37.2878H80.8632C80.9416 37.2878 81.0167 37.2567 81.0722 37.2013C81.1276 37.1459 81.1587 37.0707 81.1587 36.9924V21.9491C81.1537 19.1361 80.2622 16.7571 78.551 15.0744V15.0727ZM76.3774 29.313C75.8332 30.7086 73.9484 33.1961 69.6062 33.1961C68.5357 33.2227 67.4806 32.9373 66.5695 32.3747C66.1927 32.1434 65.8826 31.8179 65.6698 31.4304C65.457 31.0428 65.3488 30.6065 65.3558 30.1644C65.3363 29.8054 65.4001 29.4468 65.5424 29.1166C65.6846 28.7864 65.9013 28.4937 66.1755 28.2612C66.9361 27.7098 67.8198 27.3522 68.7498 27.2195C70.9772 26.8881 73.2309 26.7679 75.481 26.8606H76.3774V29.3146V29.313Z" fill="#8849FC"/>
<path fill-rule="evenodd" clip-rule="evenodd" d="M26.9513 4.81779C26.5301 4.5307 26.0321 4.37715 25.5223 4.37715C25.0125 4.37715 24.5145 4.5307 24.0933 4.81779L11.0466 13.6725L10.9431 13.7476L8.09675 15.6775C7.79293 15.9469 7.55523 16.2826 7.40208 16.6587C7.24893 17.0348 7.18445 17.441 7.21362 17.8461C7.24177 18.2503 7.362 18.6428 7.56513 18.9935C7.76825 19.3442 8.04889 19.6438 8.38557 19.8694L13.7511 23.4019L22.1818 17.6758C23.1662 17.0039 24.3302 16.6444 25.5221 16.6441C26.7139 16.6438 27.8781 17.0028 28.8629 17.6741L35.4137 22.1265V10.564L26.9513 4.81946V4.81779ZM34.0498 25.4053L26.958 20.5939C26.5368 20.3069 26.0388 20.1533 25.529 20.1533C25.0192 20.1533 24.5212 20.3069 24.1 20.5939L16.9047 25.4737L24.0699 30.1915C24.491 30.4791 24.989 30.6329 25.4989 30.6329C26.0088 30.6329 26.5069 30.4791 26.928 30.1915L33.7727 25.5472L34.0498 25.4053ZM38.8611 24.7876C39.4487 24.9612 40.0063 25.2233 40.5138 25.5655L49.7325 31.8309C49.9702 31.9926 50.1646 32.2102 50.2985 32.4646C50.4324 32.7191 50.5017 33.0025 50.5004 33.29V49.0611C50.502 49.3769 50.4183 49.6872 50.2582 49.9593C50.098 50.2314 49.8674 50.4552 49.5905 50.607C49.3159 50.7558 49.0056 50.8264 48.6936 50.8111C48.3816 50.7957 48.0798 50.6952 47.8209 50.5202L38.604 44.2548C38.1811 43.9687 37.6822 43.8158 37.1716 43.8158C36.661 43.8158 36.1621 43.9687 35.7393 44.2548L28.8695 48.8992C27.8845 49.5689 26.7209 49.927 25.5298 49.927C24.3387 49.927 23.1751 49.5689 22.1901 48.8992L3.25873 36.0479C2.42782 35.484 1.74843 34.7244 1.28045 33.8359C0.810713 32.9452 0.565985 31.9531 0.567605 30.9461V19.8577C0.56591 18.8536 0.809036 17.8642 1.27592 16.9752C1.74281 16.0862 2.41939 15.3245 3.24705 14.7559L6.05003 12.8561C6.18358 12.7459 6.32548 12.6391 6.47406 12.5406L9.03665 10.8211L22.1834 1.9063C23.1642 1.23784 24.3235 0.880181 25.5104 0.879883C26.6973 0.879585 27.8567 1.23667 28.8378 1.90463L38.0564 8.16835C38.2933 8.33095 38.4867 8.54913 38.6197 8.80378C38.7527 9.05844 38.8212 9.34181 38.8194 9.6291L38.8611 24.7876ZM4.03669 19.4988C4.02667 19.6182 4.02667 19.7383 4.03669 19.8577V30.9461C4.033 31.3766 4.13597 31.8013 4.33638 32.1824C4.5368 32.5634 4.82843 32.8889 5.18526 33.1297L24.1 46.0178C24.5212 46.3049 25.0192 46.4584 25.529 46.4584C26.0388 46.4584 26.5368 46.3049 26.958 46.0178L33.8027 41.3734C34.7879 40.7033 35.9518 40.345 37.1432 40.345C38.3347 40.345 39.4986 40.7033 40.4838 41.3734L47.0413 45.8258V34.2232L38.5723 28.4787C38.1501 28.1916 37.6513 28.0381 37.1407 28.0381C36.6302 28.0381 36.1314 28.1916 35.7092 28.4787L28.8695 33.1231C27.8861 33.7913 26.7246 34.1486 25.5357 34.1486C24.3467 34.1486 23.1852 33.7913 22.2018 33.1231L6.51747 22.8143C5.32528 22.036 4.44613 20.8619 4.03502 19.4988H4.03669Z" fill="#C5A8FF"/>
</g>
<defs>
<clipPath id="clip0_579_7033">
<rect width="191.985" height="50.083" fill="white" transform="translate(0.569733 0.881348)"/>
</clipPath>
</defs>
</svg>
