<svg width="193" height="51" viewBox="0 0 193 51" fill="none" xmlns="http://www.w3.org/2000/svg">
<g clip-path="url(#clip0_674_410)">
<path d="M172.631 12.3298V36.1167C172.631 36.1555 172.639 36.1939 172.653 36.2297C172.668 36.2656 172.69 36.2982 172.717 36.3256C172.745 36.3531 172.778 36.3748 172.813 36.3897C172.849 36.4045 172.888 36.4122 172.926 36.4122H190.056C190.134 36.4122 190.21 36.3811 190.265 36.3256C190.321 36.2702 190.352 36.195 190.352 36.1167V32.2346C190.352 32.1562 190.321 32.081 190.265 32.0256C190.21 31.9701 190.134 31.939 190.056 31.939H177.408V12.3298C177.409 12.2718 177.392 12.2149 177.359 12.1668C177.327 12.1188 177.28 12.0818 177.226 12.061C177.191 12.046 177.152 12.0392 177.114 12.041H172.926C172.888 12.04 172.85 12.0469 172.815 12.061C172.779 12.0748 172.746 12.0959 172.718 12.1229C172.691 12.1499 172.669 12.1822 172.654 12.218C172.639 12.2533 172.631 12.2913 172.631 12.3298V12.3298ZM165.369 15.5357C164.256 14.2933 162.89 13.304 161.362 12.6343C159.834 11.9647 158.181 11.6302 156.513 11.6536C149.29 11.6536 144.069 17.5327 144.069 24.3101C144.077 25.9908 144.418 27.6533 145.072 29.2017C145.726 30.75 146.68 32.1536 147.879 33.3316C149.078 34.5085 150.498 35.4365 152.058 36.0618C153.618 36.6871 155.286 36.9974 156.966 36.9749C158.927 37.02 160.874 36.6242 162.663 35.8168C164.451 35.0094 166.036 33.8109 167.3 32.3097L167.936 31.5583C167.962 31.5251 167.981 31.4871 167.992 31.4464C168.002 31.4056 168.004 31.3631 167.998 31.3215C167.991 31.28 167.976 31.2401 167.954 31.2043C167.931 31.1698 167.901 31.1402 167.866 31.1175L164.276 28.9402C164.217 28.9045 164.147 28.8908 164.08 28.9015C164.012 28.9122 163.95 28.9466 163.905 28.9986L163.396 29.578C162.593 30.4828 161.601 31.1989 160.489 31.6749C159.377 32.1509 158.174 32.3751 156.966 32.3314C155.23 32.3513 153.535 31.8085 152.134 30.7842C150.732 29.7598 149.701 28.3091 149.193 26.6493H168.22C168.295 26.6499 168.368 26.6211 168.423 26.5691C168.477 26.5171 168.51 26.4459 168.513 26.3705L168.56 25.549C168.745 21.4799 167.56 18.0085 165.368 15.5357H165.369ZM148.776 26.3471V26.4239C148.792 26.3939 148.782 26.3705 148.776 26.3471ZM149.14 21.9841C149.546 20.3399 150.495 18.8806 151.833 17.842C153.17 16.8034 154.819 16.2462 156.513 16.2603C159.799 16.2603 162.581 18.431 163.454 21.9841H149.14V21.9841ZM130.663 41.413L142.883 12.5552C142.902 12.5104 142.909 12.4616 142.905 12.4133C142.9 12.3649 142.883 12.3184 142.856 12.278C142.829 12.2375 142.793 12.2044 142.75 12.1814C142.707 12.1584 142.66 12.1463 142.611 12.1462H138.106C138.048 12.1444 137.991 12.1608 137.943 12.1929C137.893 12.2241 137.855 12.2703 137.834 12.3248L131.148 28.0786L123.897 12.3415C123.873 12.2904 123.835 12.2469 123.788 12.2159C123.741 12.1849 123.686 12.1677 123.63 12.1662H119.096C119.047 12.1685 118.999 12.1824 118.955 12.2067C118.912 12.2311 118.875 12.2653 118.848 12.3065C118.825 12.3491 118.814 12.3968 118.814 12.445C118.814 12.4951 118.824 12.5419 118.848 12.5836L128.679 33.9994L125.625 41.211C125.608 41.2557 125.602 41.3037 125.607 41.3512C125.612 41.3988 125.628 41.4445 125.653 41.4848C125.681 41.5249 125.717 41.5576 125.76 41.58C125.802 41.6032 125.849 41.6153 125.897 41.615H130.397C130.457 41.6127 130.514 41.5921 130.562 41.5559C130.609 41.5198 130.644 41.4699 130.663 41.413V41.413ZM114.939 36.4122C114.977 36.4124 115.016 36.4048 115.051 36.3898C115.087 36.3749 115.119 36.353 115.146 36.3254C115.174 36.2982 115.196 36.2657 115.211 36.2299C115.225 36.194 115.233 36.1555 115.233 36.1167V12.4634C115.233 12.3853 115.202 12.3104 115.147 12.255C115.092 12.1996 115.017 12.1683 114.939 12.1679H110.703C110.664 12.1679 110.625 12.1755 110.59 12.1904C110.554 12.2052 110.521 12.227 110.494 12.2544C110.466 12.2819 110.445 12.3144 110.43 12.3503C110.415 12.3862 110.407 12.4246 110.407 12.4634V36.115C110.407 36.1935 110.441 36.2686 110.494 36.3237C110.521 36.3515 110.554 36.3735 110.59 36.3884C110.625 36.4033 110.664 36.4108 110.703 36.4105H114.935L114.939 36.4122ZM86.7506 12.1679H82.7015C82.653 12.1672 82.6052 12.1791 82.5627 12.2025C82.5203 12.226 82.4847 12.26 82.4594 12.3014C82.4312 12.3401 82.4139 12.3857 82.4093 12.4334C82.4049 12.4812 82.4124 12.5293 82.431 12.5736L92.2022 36.2319C92.2249 36.2853 92.2627 36.3309 92.3111 36.363C92.3595 36.3951 92.4163 36.4122 92.4744 36.4122H96.2396C96.2975 36.4125 96.3542 36.3955 96.4024 36.3634C96.4506 36.3313 96.4881 36.2855 96.5101 36.2319L106.812 12.5552C106.835 12.5121 106.847 12.4639 106.847 12.415C106.848 12.3663 106.835 12.3183 106.811 12.2764C106.785 12.2353 106.749 12.2015 106.707 12.1781C106.665 12.1548 106.617 12.1426 106.568 12.1428H101.998C101.942 12.1436 101.886 12.1608 101.839 12.1926C101.792 12.2243 101.755 12.2691 101.733 12.3215L94.3829 29.2808L87.0194 12.3449C86.9965 12.2919 86.9588 12.2467 86.9108 12.2147C86.8628 12.1827 86.8066 12.1653 86.7489 12.1645L86.7506 12.1679ZM77.9946 14.1932C76.2581 12.5085 73.8704 11.6519 71.0552 11.6519C67.6578 11.6414 64.3785 12.8982 61.8584 15.1767L61.0269 15.8713C60.9937 15.9001 60.9671 15.9358 60.949 15.9759C60.9308 16.0159 60.9215 16.0594 60.9217 16.1034C60.9233 16.1478 60.9351 16.1913 60.9563 16.2304C60.9774 16.2695 61.0073 16.3031 61.0436 16.3288L64.3997 18.8067C64.4512 18.8424 64.5124 18.8616 64.5751 18.8616C64.6377 18.8616 64.6989 18.8424 64.7504 18.8067L65.2947 18.4009C66.7691 17.324 68.3937 16.2587 71.0786 16.2587C73.0389 16.2587 74.1492 16.8848 74.8088 17.6779C75.5267 18.6581 75.8874 19.8553 75.8273 21.0675V21.3346C72.7266 21.3346 68.9781 21.3346 65.9542 22.1979C64.36 22.5774 62.8963 23.3764 61.7148 24.5121C61.1171 25.1509 60.652 25.9019 60.3462 26.7215C60.0404 27.5412 59.9 28.4133 59.9332 29.2875C59.9332 33.9176 64.0457 36.9732 69.0532 36.9732C71.491 37.04 73.8787 36.2719 75.8256 34.8026V36.1167C75.8256 36.195 75.8568 36.2702 75.9122 36.3256C75.9676 36.3811 76.0428 36.4122 76.1212 36.4122H80.3071C80.3855 36.4122 80.4607 36.3811 80.5161 36.3256C80.5715 36.2702 80.6027 36.195 80.6027 36.1167V21.0708C80.5977 18.2573 79.706 15.878 77.9946 14.1949V14.1932ZM75.8206 28.4359C75.2763 29.8318 73.3912 32.3197 69.0482 32.3197C67.9776 32.3463 66.9223 32.0609 66.011 31.4982C65.6341 31.2669 65.324 30.9413 65.1111 30.5537C64.8983 30.1661 64.7901 29.7297 64.7971 29.2875C64.7776 28.9285 64.8414 28.5698 64.9837 28.2396C65.1259 27.9093 65.3427 27.6165 65.617 27.384C66.3777 26.8325 67.2615 26.4749 68.1917 26.3421C70.4194 26.0106 72.6736 25.8904 74.924 25.9831H75.8206V28.4376V28.4359Z" fill="white"/>
<path fill-rule="evenodd" clip-rule="evenodd" d="M26.3862 3.93712C25.9648 3.64997 25.4668 3.4964 24.9569 3.4964C24.447 3.4964 23.949 3.64997 23.5276 3.93712L10.4788 12.7933L10.3752 12.8684L7.52837 14.7986C7.22449 15.0681 6.98675 15.4039 6.83358 15.78C6.6804 16.1562 6.6159 16.5625 6.64509 16.9676C6.67324 17.372 6.79349 17.7645 6.99665 18.1153C7.19981 18.466 7.48049 18.7657 7.81723 18.9913L13.1837 22.5244L21.6158 16.7973C22.6004 16.1253 23.7646 15.7658 24.9566 15.7655C26.1487 15.7652 27.3131 16.1242 28.298 16.7956L34.85 21.2488V9.68429L26.3862 3.93879V3.93712ZM33.4858 24.5281L26.3929 19.716C25.9715 19.4288 25.4735 19.2752 24.9636 19.2752C24.4537 19.2752 23.9556 19.4288 23.5343 19.716L16.3378 24.5966L23.5042 29.3152C23.9254 29.6028 24.4235 29.7566 24.9335 29.7566C25.4435 29.7566 25.9416 29.6028 26.3628 29.3152L33.2087 24.67L33.4858 24.5281ZM38.298 23.9103C38.8857 24.0839 39.4434 24.3461 39.951 24.6884L49.1712 30.9548C49.409 31.1165 49.6034 31.3342 49.7373 31.5887C49.8712 31.8431 49.9406 32.1266 49.9392 32.4142V48.188C49.9409 48.5038 49.8572 48.8142 49.697 49.0863C49.5368 49.3585 49.3061 49.5823 49.0292 49.7342C48.7545 49.883 48.4442 49.9535 48.1321 49.9382C47.8201 49.9229 47.5182 49.8223 47.2593 49.6474L38.0408 43.3809C37.6179 43.0947 37.1189 42.9417 36.6082 42.9417C36.0975 42.9417 35.5985 43.0947 35.1756 43.3809L28.3047 48.0261C27.3195 48.6959 26.1557 49.054 24.9644 49.054C23.7731 49.054 22.6093 48.6959 21.6241 48.0261L2.68952 35.1726C1.85847 34.6086 1.17896 33.8488 0.710904 32.9602C0.241083 32.0693 -0.00368714 31.0771 -0.00206639 30.0699V18.9796C-0.00376186 17.9753 0.239405 16.9858 0.706374 16.0966C1.17334 15.2075 1.85003 14.4456 2.67783 13.877L5.48129 11.9768C5.61487 11.8666 5.7568 11.7598 5.9054 11.6612L8.46842 9.94143L21.6175 1.02513C22.5984 0.356558 23.7579 -0.00116684 24.945 -0.00146466C26.132 -0.00176247 27.2917 0.35538 28.273 1.02346L37.4932 7.28824C37.73 7.45088 37.9235 7.66909 38.0565 7.92379C38.1895 8.17849 38.2581 8.46191 38.2562 8.74925L38.298 23.9103V23.9103ZM3.46761 18.6206C3.45759 18.7401 3.45759 18.8602 3.46761 18.9796V30.0699C3.46392 30.5005 3.5669 30.9253 3.76735 31.3064C3.9678 31.6874 4.25949 32.013 4.61638 32.2539L23.5343 45.1441C23.9556 45.4313 24.4537 45.5848 24.9636 45.5848C25.4735 45.5848 25.9715 45.4313 26.3929 45.1441L33.2387 40.499C34.224 39.8288 35.3882 39.4704 36.5798 39.4704C37.7715 39.4704 38.9356 39.8288 39.9209 40.499L46.4796 44.9521V33.3476L38.0091 27.602C37.5868 27.3149 37.088 27.1614 36.5773 27.1614C36.0667 27.1614 35.5678 27.3149 35.1455 27.602L28.3047 32.2472C27.3211 32.9156 26.1594 33.273 24.9703 33.273C23.7811 33.273 22.6194 32.9156 21.6358 32.2472L5.94881 21.9367C4.75642 21.1583 3.87712 19.9839 3.46594 18.6206H3.46761Z" fill="#935EFF"/>
</g>
<defs>
<clipPath id="clip0_674_410">
<rect width="192.018" height="50.0916" fill="white"/>
</clipPath>
</defs>
</svg>
