<svg width="76" height="102" viewBox="0 0 76 102" fill="none" xmlns="http://www.w3.org/2000/svg">
<path fill-rule="evenodd" clip-rule="evenodd" d="M36.935 0C16.5284 0 0 16.334 0 36.5005C0 52.652 10.5727 66.2941 25.2543 71.1304C27.1011 71.4498 27.7936 70.3548 27.7936 69.3966C27.7936 68.5297 27.7475 65.6553 27.7475 62.5984C18.4675 64.2865 16.0667 60.3627 15.328 58.3096C14.9125 57.2602 13.1119 54.0208 11.5422 53.1539C10.2495 52.4695 8.40272 50.7813 11.496 50.7357C14.4047 50.6901 16.4823 53.382 17.1748 54.477C20.499 59.9977 25.8084 58.4465 27.9321 57.4883C28.2553 55.1158 29.2249 53.5189 30.2867 52.6064C22.0687 51.6939 13.4813 48.5457 13.4813 34.5842C13.4813 30.6148 14.9125 27.3298 17.2671 24.7747C16.8978 23.8622 15.6051 20.1209 17.6365 15.1021C17.6365 15.1021 20.7298 14.144 27.7936 18.8434C30.7484 18.0221 33.8879 17.6115 37.0274 17.6115C40.1669 17.6115 43.3063 18.0221 46.2611 18.8434C53.325 14.0983 56.4183 15.1021 56.4183 15.1021C58.4497 20.1209 57.157 23.8622 56.7876 24.7747C59.1422 27.3298 60.5735 30.5692 60.5735 34.5842C60.5735 48.5913 51.9399 51.6939 43.7219 52.6064C45.0608 53.747 46.215 55.937 46.215 59.359C46.215 64.2409 46.1688 68.1647 46.1688 69.3966C46.1688 70.3548 46.8613 71.4954 48.7081 71.1304C63.2974 66.2941 73.8701 52.6064 73.8701 36.5005C73.8701 16.334 57.3417 0 36.935 0V0Z" fill="#3C87C5"/>
<path d="M15.6336 91.1832V92.3058C15.6336 94.3848 14.9683 96.0687 13.6378 97.3576C12.3073 98.6466 10.5887 99.2911 8.48205 99.2911C6.2368 99.2911 4.37269 98.5634 2.88972 97.1082C1.42061 95.6391 0.686049 93.8512 0.686049 91.7445C0.686049 89.624 1.41368 87.8292 2.86893 86.3601C4.33804 84.891 6.15365 84.1564 8.31574 84.1564C9.67398 84.1564 10.9144 84.4682 12.037 85.0919C13.1597 85.7017 14.0328 86.5195 14.6565 87.5451L12.2033 88.9587C11.8569 88.3628 11.3302 87.8777 10.6234 87.5035C9.93038 87.1293 9.15424 86.9422 8.29495 86.9422C6.90899 86.9422 5.76558 87.3995 4.86471 88.3143C3.9777 89.2151 3.53419 90.3586 3.53419 91.7445C3.53419 93.1166 3.98463 94.2531 4.8855 95.154C5.80023 96.041 7.00601 96.4845 8.50284 96.4845C9.61161 96.4845 10.5263 96.2419 11.247 95.7569C11.9816 95.2579 12.4805 94.5788 12.7439 93.7195H8.33653V91.1832H15.6336ZM17.6742 84.4475H20.5431V99H17.6742V84.4475ZM32.8624 84.4475V87.1916H28.9333V99H26.0643V87.1916H22.1559V84.4475H32.8624ZM42.7382 84.4475H45.5863V99H42.7382V92.9711H37.333V99H34.464V84.4475H37.333V90.2269H42.7382V84.4475ZM53.7158 99.2911C52.0942 99.2911 50.7637 98.8337 49.7242 97.919C48.6848 97.0042 48.165 95.7777 48.165 94.2392V84.4475H51.0132V94.0106C51.0132 94.7728 51.228 95.3757 51.6576 95.8192C52.1011 96.2627 52.7872 96.4845 53.7158 96.4845C54.6444 96.4845 55.3235 96.2627 55.7531 95.8192C56.1966 95.3757 56.4184 94.7728 56.4184 94.0106V84.4475H59.2873V94.2392C59.2873 95.7777 58.7676 97.0042 57.7281 97.919C56.6887 98.8337 55.3512 99.2911 53.7158 99.2911ZM70.6658 91.4535C71.9408 92.188 72.5784 93.2968 72.5784 94.7798C72.5784 96.0133 72.1418 97.025 71.2687 97.815C70.3955 98.605 69.3214 99 68.0463 99H61.8719V84.4475H67.6097C68.8571 84.4475 69.9035 84.8355 70.7489 85.6117C71.6082 86.3739 72.0379 87.351 72.0379 88.543C72.0379 89.7487 71.5805 90.7189 70.6658 91.4535ZM67.6097 87.1293H64.7408V90.3308H67.6097C68.0532 90.3308 68.4205 90.1784 68.7116 89.8735C69.0165 89.5686 69.1689 89.1874 69.1689 88.7301C69.1689 88.2727 69.0234 87.8916 68.7324 87.5866C68.4413 87.2817 68.0671 87.1293 67.6097 87.1293ZM68.0463 96.3182C68.5314 96.3182 68.9333 96.1588 69.2521 95.84C69.5709 95.5074 69.7302 95.0916 69.7302 94.5927C69.7302 94.1076 69.5709 93.7056 69.2521 93.3869C68.9333 93.0542 68.5314 92.8879 68.0463 92.8879H64.7408V96.3182H68.0463Z" fill="white"/>
</svg>
