<svg width="670" height="354" viewBox="0 0 670 354" fill="none" xmlns="http://www.w3.org/2000/svg">
<path d="M520.879 156V189M520.879 189V203M520.879 189L533.238 177M533.238 177L554.002 156M533.238 177L554.002 202.5M155.509 162.029C152.191 158.673 147.962 156.387 143.359 155.461C138.756 154.535 133.985 155.01 129.649 156.827C125.313 158.643 121.607 161.72 118.999 165.666C116.392 169.613 115 174.253 115 179C115 183.747 116.392 188.387 118.999 192.334C121.607 196.28 125.313 199.357 129.649 201.173C133.985 202.99 138.756 203.465 143.359 202.539C147.962 201.613 152.191 199.327 155.509 195.971M233.648 155H252.434C258.728 155 264.764 157.529 269.214 162.029C273.664 166.53 276.164 172.635 276.164 179C276.164 185.365 273.664 191.47 269.214 195.971C264.764 200.471 258.728 203 252.434 203H235.626V180M294.949 157H324.611M294.949 179H324.611M294.949 201.5H324.611M415.578 157H445.24M415.578 179H445.24M415.578 201.5H445.24M363.172 159H384.924C388.071 159 391.089 160.264 393.314 162.515C395.539 164.765 396.789 167.817 396.789 171C396.789 174.183 395.539 177.235 393.314 179.485C391.089 181.736 388.071 183 384.924 183H364.655V203M460.07 204L481.328 157.5L503.575 204M215.85 179C215.85 192.255 205.226 203 192.12 203C179.015 203 168.391 192.255 168.391 179C168.391 165.745 179.015 155 192.12 155C205.226 155 215.85 165.745 215.85 179Z" stroke="url(#paint0_linear_211:454)" stroke-width="4"/>
<defs>
<linearGradient id="paint0_linear_211:454" x1="584.5" y1="224.5" x2="84" y2="131.5" gradientUnits="userSpaceOnUse">
<stop offset="0.00520685" stop-color="#5B9CD9"/>
<stop offset="1" stop-color="white"/>
</linearGradient>
</defs>
</svg>
