<svg width="9649" height="3797" viewBox="0 0 9649 3797" fill="none" xmlns="http://www.w3.org/2000/svg">
<g clip-path="url(#clip0_219:424)">
<path d="M928.703 1306.76L0 1898.5V2375.18H9648.65V953.359L7922.74 0L5564 1520.44L5424.29 1372.51L4314.77 1117.73L3320.32 1594.41V1553.32L3427.16 1446.48L1725.91 953.359L928.703 1306.76Z" fill="url(#paint0_linear_219:424)"/>
<path d="M1840.97 715.02L928.703 1306.76L1725.91 953.359L3427.16 1446.48L1840.97 715.02Z" fill="url(#paint1_linear_219:424)"/>
<path d="M3320.32 1553.32L3427.16 1446.48L4314.77 1117.73L3320.32 1602.63V1553.32Z" fill="url(#paint2_linear_219:424)"/>
<path d="M5564 1520.44L5424.29 1372.51L5588.66 1397.16L7922.74 0L5564 1520.44Z" fill="url(#paint3_linear_219:424)"/>
<path d="M6410.52 1832.75L5564 1520.44L7930.96 0L6410.52 1832.75Z" fill="url(#paint4_linear_219:424)"/>
<rect y="2366.96" width="9648.65" height="1430.04" fill="url(#paint5_linear_219:424)"/>
</g>
<defs>
<linearGradient id="paint0_linear_219:424" x1="4824.33" y1="0" x2="4824.33" y2="2375.18" gradientUnits="userSpaceOnUse">
<stop offset="0.453125" stop-color="#122337"/>
<stop offset="1" stop-color="#0C1B2E"/>
</linearGradient>
<linearGradient id="paint1_linear_219:424" x1="2177.93" y1="715.02" x2="2177.93" y2="1446.48" gradientUnits="userSpaceOnUse">
<stop offset="0.21875" stop-color="white"/>
<stop offset="1" stop-color="#C0C0C0" stop-opacity="0.72"/>
</linearGradient>
<linearGradient id="paint2_linear_219:424" x1="3817.55" y1="1117.73" x2="3817.55" y2="1602.63" gradientUnits="userSpaceOnUse">
<stop stop-color="#575757"/>
<stop offset="0.604167" stop-color="white"/>
</linearGradient>
<linearGradient id="paint3_linear_219:424" x1="6673.51" y1="0" x2="6673.51" y2="1520.44" gradientUnits="userSpaceOnUse">
<stop offset="0.09375" stop-color="#7C7C7C"/>
<stop offset="0.770833" stop-color="white"/>
</linearGradient>
<linearGradient id="paint4_linear_219:424" x1="6747.48" y1="0" x2="6747.48" y2="1832.75" gradientUnits="userSpaceOnUse">
<stop offset="0.354167" stop-color="#1A354E"/>
<stop offset="1" stop-color="#112435" stop-opacity="0"/>
</linearGradient>
<linearGradient id="paint5_linear_219:424" x1="4824.33" y1="2358.65" x2="4824.33" y2="3797" gradientUnits="userSpaceOnUse">
<stop offset="0.03125" stop-color="#0C1B2E"/>
<stop offset="1" stop-color="#12263F"/>
</linearGradient>
<clipPath id="clip0_219:424">
<rect width="9648.65" height="3797" fill="white"/>
</clipPath>
</defs>
</svg>
