<svg width="127" height="92" viewBox="0 0 127 92" fill="none" xmlns="http://www.w3.org/2000/svg">
<path d="M106.246 24.4043L108.193 22.6951L104.68 20.7484L108.193 18.6593L106.864 16.5228L103.255 18.5169L103.208 14.6236L100.739 15.1459L100.881 19.8938L98.8871 21.0333L98.6497 15.2883L96.1808 15.8581L96.3233 22.5052L89.3913 26.4934L90.056 22.1728L86.1152 22.6951L87.4921 19.8938L94.1392 18.8493L94.3291 16.0955L89.2014 16.9026L90.7207 14.5287L88.5367 13.1518L87.2072 15.5732L84.9757 10.9202L83.124 12.1072L85.4505 18.3745L83.5988 21.8405L81.7946 17.5198L78.7559 20.1312L78.8509 12.6295L84.5009 9.11601L83.5513 6.69457L78.8984 9.49585L78.8034 7.21684L83.0132 5.00115L81.937 2.40561L78.6135 4.43139V0H75.9863V4.36809L72.4728 2.50057L71.7448 4.71627L75.9863 7.28015L76.0496 9.74907L71.1118 6.6471L70.3521 8.9261L75.923 12.5345V20.3528L72.6628 17.6306L71.27 21.7771L69.3076 18.6119L71.6815 12.2496L69.5291 10.8886L67.6616 15.8264L66.1423 13.1676L64.2748 14.5603L65.6991 17.0925L60.3498 16.1746V18.7068L67.0286 19.7514L69.0543 23.0433L64.5596 22.4419L65.3905 26.6833L58.7672 22.9167L58.324 15.7631L55.8551 15.5415V21.429L53.9559 20.4161V15.0034L51.5187 14.592V18.8334L47.6887 16.5228L46.6758 18.5802L50.3792 20.8909L46.8974 22.7584L48.2584 24.6259L52.7215 22.3152L55.1271 23.5814L48.7965 26.1452L50.5691 28.3293L57.7859 25.069L63.9266 28.7724L60.0966 30.4184L62.882 33.9002H59.052L55.0638 28.3214L52.3575 29.6033L55.6335 33.9002H52.7136V36.0842H55.7048L52.0726 40.3574L54.5653 41.3544L59.1945 36.2979H62.7554L60.0491 39.6452L63.8949 41.3544L57.0579 45.2715L50.3633 41.3544L49.3663 43.6334L54.2804 46.6958L52.5711 47.6929L48.298 44.9154L47.2297 46.8383L50.3633 48.8324L46.6758 51.3963L47.7995 53.248L51.7877 51.1114L51.5741 55.0997H54.2092L54.1379 49.8295L55.8472 48.8324L55.9896 54.6011L58.4111 54.1026L58.4823 47.5505L65.3905 43.3486L64.6783 47.3368L68.809 47.1469L67.0286 50.2805L60.3577 51.3013L60.4289 53.6041L65.6042 52.9394L64.0374 55.4558L66.0315 56.8327L67.6933 54.3163L69.45 58.9692L71.634 57.8297L69.4025 51.3725L71.1118 48.2389L72.7261 52.2272L76.0971 49.5683V57.6873L70.4471 61.0108L71.2542 63.3373L76.0971 60.4886L76.0021 62.6726L71.9189 65.0466L72.5836 67.3731L76.0021 65.4264L76.0496 69.6046H78.6135L78.661 65.5214L82.0795 67.5155L82.7917 65.1415L78.661 62.7201L78.7559 60.4411L83.6463 63.2424L84.3585 60.9159L78.5185 57.5449L78.4711 49.6158L81.9845 52.4646L83.5988 48.1914L85.593 51.3725L83.124 57.7822L85.3081 59.0642L87.1123 53.9839L88.6791 56.6427L90.6257 55.5507L89.2963 52.9394L94.3291 53.8415V51.515L87.5871 50.233L85.9253 47.0519L90.056 47.7166L89.5337 43.4435L96.2283 47.4318V54.0789L98.8871 54.6961V48.9036L100.644 49.9957V54.886L103.303 55.5507V51.515L107.006 53.6041L108.193 51.2301L104.632 49.236L108.193 46.957L106.199 45.0103L102.021 47.7641L100.264 46.5771L105.344 43.5385L103.398 41.6393L97.6052 45.1528L90.5308 41.3069L94.8514 39.5502L91.7653 36.1792L95.4686 36.2267L99.4094 41.0696L101.878 39.7401L98.5548 35.8943H102.306V33.5678L98.8871 33.5203L102.068 29.9594L99.6943 28.7724L95.801 33.6628H92.1451L94.709 30.3392L90.8157 28.6775L97.3678 24.9266L103.113 27.8228L105.154 26.0186L100.169 23.3598L102.068 22.2203L106.246 24.4043ZM70.4312 25.8039L73.4224 31.3115L67.8515 27.9563L67.63 25.2658L70.4312 25.8039ZM66.3955 30.3303L72.0297 33.5905H65.6358L63.8316 31.3748L66.3955 30.3303ZM63.8316 38.2751L65.9207 36.0594L71.8714 36.281L66.6487 39.2564L63.8316 38.2751ZM70.3205 43.8935L67.44 44.3525L67.9465 41.7253L73.4224 38.4967L70.3205 43.8935ZM75.7964 46.0301L73.5174 47.9925L72.5995 45.1438L75.7964 39.7945V46.0301ZM75.7964 29.9504L72.5995 24.3162L73.549 21.784L75.7964 23.5566V29.9504ZM90.1035 31.3432L88.236 33.5905H81.9687L87.5713 30.3303L90.1035 31.3432ZM84.0261 25.6773L86.59 25.2658L86.1785 28.0196L80.7975 31.0899L84.0261 25.6773ZM78.4869 23.4933L80.576 21.784L81.6522 24.3795L78.4869 29.5706V23.4933ZM80.6076 47.8343L78.3286 46.22L78.4869 39.7945L81.6522 45.3337L80.6076 47.8343ZM83.8995 44.0043L80.7975 38.4967L86.1152 41.6936L86.59 44.3525L83.8995 44.0043ZM87.413 39.2564L81.9687 36.0594H88.236L90.2617 38.3384L87.413 39.2564Z" fill="#3C87C5"/>
<path d="M4.5923 19.2204H8.53308C8.87162 19.2554 9.19758 19.3678 9.48573 19.549C9.77389 19.7301 10.0165 19.9751 10.1949 20.265C10.8121 21.262 18.931 36.8352 18.931 36.8352L19.121 20.3599C19.121 20.3599 18.8836 19.4578 19.6432 19.2204C20.4029 18.983 24.7235 19.2204 24.7235 19.2204C24.7235 19.2204 24.4861 49.6071 24.3437 49.9395C24.2491 50.1478 24.1018 50.3278 23.9164 50.4618H19.7224C19.7224 50.4618 18.9943 50.4934 18.7095 50.0503C18.4246 49.6071 10.0524 33.211 10.0524 33.211C10.0524 33.211 9.67258 32.8944 9.73588 34.3505C9.79919 35.8065 9.76754 49.4805 9.76754 49.4805C9.76754 49.4805 9.64093 50.0503 9.45101 50.2085C9.26109 50.3668 8.72299 50.4623 8.72299 50.4623H0.817698C0.817698 50.4623 0.0342907 50.4143 0.010551 49.0374C-0.0131887 47.6605 0.010551 20.9059 0.010551 20.9059C0.010551 20.9059 0.0817747 19.0331 1.00762 19.1149C1.93346 19.1967 4.5923 19.2204 4.5923 19.2204Z" fill="#A4C3E0"/>
<path d="M50.6464 19.4101L46.943 30.3303L43.3821 19.4101H36.6163L33.269 30.3303L29.6368 19.4101C29.6368 19.4101 19.6424 19.2202 19.3158 19.4101C18.9892 19.6 19.4525 21.1193 19.4525 21.1193L29.2807 50.462H37.0436L39.9635 41.4246L43.2396 50.462H51.0737L61.1156 19.4101H50.6464ZM47.2279 46.8383H46.3495L40.1574 26.8643L34.0286 46.5682L32.7942 46.4733L25.0788 23.1131H26.2183L33.3402 44.3525L40.1574 23.3983L46.6739 44.3525L53.9224 23.1131H55.2756L47.2279 46.8383Z" fill="#A4C3E0"/>
<path d="M8.12964 32.728H1.93359V48.5386H8.12964V32.728Z" fill="#011D37"/>
<path d="M6.48736 27.9736H6.22647V26.2442L5.70329 26.4363V26.2007L6.44669 25.9216H6.48736V27.9736Z" fill="#011D37"/>
<path d="M6.44049 23.5513H6.1796V21.8218L5.65642 22.014V21.7783L6.39981 21.4992H6.44049V23.5513Z" fill="#011D37"/>
<path d="M4.68536 25.7353C4.68536 26.0754 4.62729 26.3281 4.51115 26.4934C4.395 26.6587 4.21346 26.7414 3.96653 26.7414C3.72273 26.7414 3.54224 26.6608 3.42505 26.4996C3.30786 26.3375 3.24718 26.0958 3.24299 25.7745V25.3869C3.24299 25.051 3.30106 24.8015 3.41721 24.6382C3.53335 24.475 3.71541 24.3934 3.96339 24.3934C4.20928 24.3934 4.39029 24.4724 4.50644 24.6304C4.62258 24.7873 4.68222 25.0301 4.68536 25.3586V25.7353ZM4.395 25.3382C4.395 25.0923 4.36047 24.9134 4.29142 24.8015C4.22236 24.6884 4.11302 24.6319 3.96339 24.6319C3.81481 24.6319 3.70652 24.6879 3.63851 24.7999C3.57049 24.9118 3.53544 25.084 3.53335 25.3162V25.7808C3.53335 26.0278 3.56892 26.2103 3.64007 26.3286C3.71227 26.4458 3.82109 26.5044 3.96653 26.5044C4.10988 26.5044 4.21608 26.4489 4.28514 26.338C4.35524 26.2271 4.39186 26.0523 4.395 25.8138V25.3382Z" fill="#011D37"/>
<path d="M4.7752 30.5498C4.7752 30.8898 4.71713 31.1425 4.60099 31.3078C4.48485 31.4731 4.30331 31.5558 4.05637 31.5558C3.81258 31.5558 3.63209 31.4752 3.5149 31.3141C3.39771 31.1519 3.33702 30.9102 3.33284 30.589V30.2013C3.33284 29.8655 3.39091 29.6159 3.50705 29.4527C3.62319 29.2895 3.80525 29.2078 4.05323 29.2078C4.29912 29.2078 4.48014 29.2868 4.59628 29.4448C4.71242 29.6018 4.77206 29.8445 4.7752 30.1731V30.5498ZM4.48485 30.1527C4.48485 29.9068 4.45032 29.7279 4.38126 29.6159C4.3122 29.5029 4.20286 29.4464 4.05323 29.4464C3.90466 29.4464 3.79636 29.5024 3.72835 29.6143C3.66034 29.7263 3.62529 29.8984 3.62319 30.1307V30.5953C3.62319 30.8422 3.65877 31.0248 3.72992 31.143C3.80212 31.2602 3.91093 31.3188 4.05637 31.3188C4.19972 31.3188 4.30592 31.2634 4.37498 31.1524C4.44509 31.0415 4.48171 30.8668 4.48485 30.6282V30.1527Z" fill="#011D37"/>
<path d="M7.12799 32.2729H6.8671V30.5435L6.34392 30.7357V30.5L7.08731 30.2209H7.12799V32.2729Z" fill="#A4C3E0"/>
<path d="M5.53302 46.8671C5.53302 47.2072 5.47494 47.4599 5.3588 47.6252C5.24266 47.7905 5.06112 47.8732 4.81419 47.8732C4.57039 47.8732 4.3899 47.7926 4.27271 47.6315C4.15552 47.4693 4.09483 47.2276 4.09065 46.9064V46.5187C4.09065 46.1828 4.14872 45.9333 4.26486 45.7701C4.38101 45.6068 4.56307 45.5252 4.81105 45.5252C5.05694 45.5252 5.23795 45.6042 5.35409 45.7622C5.47024 45.9192 5.52988 46.1619 5.53302 46.4905V46.8671ZM5.24266 46.4701C5.24266 46.2242 5.20813 46.0452 5.13907 45.9333C5.07001 45.8203 4.96067 45.7638 4.81105 45.7638C4.66247 45.7638 4.55417 45.8198 4.48616 45.9317C4.41815 46.0437 4.3831 46.2158 4.38101 46.4481V46.9127C4.38101 47.1596 4.41658 47.3422 4.48773 47.4604C4.55993 47.5776 4.66875 47.6362 4.81419 47.6362C4.95753 47.6362 5.06374 47.5807 5.13279 47.4698C5.2029 47.3589 5.23952 47.1842 5.24266 46.9456V46.4701Z" fill="#A4C3E0"/>
<path d="M6.42877 35.7622H6.16788V34.0328L5.6447 34.2249V33.9893L6.38809 33.7102H6.42877V35.7622Z" fill="#A4C3E0"/>
<path d="M3.07721 35.7622H2.81632V34.0328L2.29314 34.2249V33.9893L3.03653 33.7102H3.07721V35.7622Z" fill="#A4C3E0"/>
<path d="M3.76861 41.5547H3.50772V39.8252L2.98454 40.0174V39.7818L3.72794 39.5026H3.76861V41.5547Z" fill="#A4C3E0"/>
<path d="M5.31158 44.0947H5.05069V42.3653L4.52751 42.5574V42.3218L5.27091 42.0427H5.31158V44.0947Z" fill="#A4C3E0"/>
<path d="M7.46002 48.1309H7.19913V46.4014L6.67595 46.5936V46.3579L7.41934 46.0788H7.46002V48.1309Z" fill="#A4C3E0"/>
<path d="M3.12408 45.353H2.86319V43.6236L2.34001 43.8157V43.5801L3.08341 43.301H3.12408V45.353Z" fill="#A4C3E0"/>
<path d="M8.59552 44.5888C8.59552 44.9289 8.53744 45.1816 8.4213 45.3469C8.30516 45.5122 8.12362 45.5949 7.87669 45.5949C7.63289 45.5949 7.4524 45.5143 7.33521 45.3532C7.21802 45.191 7.15733 44.9493 7.15315 44.6281V44.2404C7.15315 43.9045 7.21122 43.655 7.32736 43.4917C7.44351 43.3285 7.62557 43.2469 7.87355 43.2469C8.11944 43.2469 8.30045 43.3259 8.41659 43.4839C8.53274 43.6408 8.59238 43.8836 8.59552 44.2121V44.5888ZM8.30516 44.1917C8.30516 43.9458 8.27063 43.7669 8.20157 43.655C8.13251 43.542 8.02317 43.4855 7.87355 43.4855C7.72497 43.4855 7.61667 43.5414 7.54866 43.6534C7.48065 43.7654 7.4456 43.9375 7.44351 44.1698V44.6343C7.44351 44.8813 7.47908 45.0639 7.55023 45.1821C7.62243 45.2993 7.73125 45.3579 7.87669 45.3579C8.02003 45.3579 8.12624 45.3024 8.19529 45.1915C8.2654 45.0806 8.30202 44.9059 8.30516 44.6673V44.1917Z" fill="#A4C3E0"/>
<path d="M6.76739 40.8139C6.76739 41.154 6.70932 41.4067 6.59318 41.572C6.47703 41.7373 6.2955 41.82 6.04856 41.82C5.80477 41.82 5.62427 41.7394 5.50708 41.5783C5.3899 41.4161 5.32921 41.1744 5.32502 40.8532V40.4655C5.32502 40.1296 5.38309 39.8801 5.49924 39.7168C5.61538 39.5536 5.79744 39.472 6.04542 39.472C6.29131 39.472 6.47233 39.551 6.58847 39.709C6.70461 39.8659 6.76425 40.1087 6.76739 40.4372V40.8139ZM6.47703 40.4168C6.47703 40.1709 6.4425 39.992 6.37345 39.8801C6.30439 39.7671 6.19505 39.7106 6.04542 39.7106C5.89684 39.7106 5.78855 39.7665 5.72054 39.8785C5.65252 39.9905 5.61747 40.1626 5.61538 40.3949V40.8594C5.61538 41.1064 5.65096 41.289 5.72211 41.4072C5.7943 41.5244 5.90312 41.583 6.04856 41.583C6.19191 41.583 6.29811 41.5275 6.36717 41.4166C6.43727 41.3057 6.47389 41.131 6.47703 40.8924V40.4168Z" fill="#A4C3E0"/>
<path d="M5.24786 38.2026C5.24786 38.5426 5.18979 38.7953 5.07365 38.9607C4.9575 39.126 4.77596 39.2086 4.52903 39.2086C4.28523 39.2086 4.10474 39.1281 3.98755 38.9669C3.87036 38.8048 3.80968 38.563 3.80549 38.2418V37.8542C3.80549 37.5183 3.86356 37.2687 3.97971 37.1055C4.09585 36.9423 4.27791 36.8607 4.52589 36.8607C4.77178 36.8607 4.95279 36.9397 5.06894 37.0977C5.18508 37.2546 5.24472 37.4974 5.24786 37.8259V38.2026ZM4.9575 37.8055C4.9575 37.5596 4.92297 37.3807 4.85392 37.2687C4.78486 37.1557 4.67552 37.0992 4.52589 37.0992C4.37731 37.0992 4.26902 37.1552 4.20101 37.2672C4.13299 37.3791 4.09794 37.5512 4.09585 37.7835V38.2481C4.09585 38.495 4.13142 38.6776 4.20257 38.7959C4.27477 38.913 4.38359 38.9716 4.52903 38.9716C4.67238 38.9716 4.77858 38.9162 4.84764 38.8053C4.91774 38.6944 4.95436 38.5196 4.9575 38.2811V37.8055Z" fill="#A4C3E0"/>
<path d="M2.73223 39.1582C2.73223 39.4982 2.67416 39.7509 2.55802 39.9162C2.44188 40.0815 2.26034 40.1642 2.0134 40.1642C1.76961 40.1642 1.58912 40.0836 1.47193 39.9225C1.35474 39.7603 1.29405 39.5186 1.28987 39.1974V38.8097C1.28987 38.4739 1.34794 38.2243 1.46408 38.0611C1.58022 37.8978 1.76229 37.8162 2.01027 37.8162C2.25615 37.8162 2.43717 37.8952 2.55331 38.0532C2.66945 38.2102 2.7291 38.4529 2.73223 38.7815V39.1582ZM2.44188 38.7611C2.44188 38.5152 2.40735 38.3363 2.33829 38.2243C2.26923 38.1113 2.15989 38.0548 2.01027 38.0548C1.86169 38.0548 1.75339 38.1108 1.68538 38.2227C1.61737 38.3347 1.58232 38.5068 1.58022 38.7391V39.2037C1.58022 39.4506 1.6158 39.6332 1.68695 39.7514C1.75915 39.8686 1.86796 39.9272 2.0134 39.9272C2.15675 39.9272 2.26295 39.8718 2.33201 39.7608C2.40212 39.6499 2.43874 39.4752 2.44188 39.2366V38.7611Z" fill="#A4C3E0"/>
<path d="M5.22442 33.2651C5.22442 33.6051 5.16635 33.8578 5.05021 34.0232C4.93407 34.1885 4.75253 34.2711 4.50559 34.2711C4.2618 34.2711 4.08131 34.1906 3.96412 34.0294C3.84693 33.8673 3.78624 33.6255 3.78205 33.3043V32.9167C3.78205 32.5808 3.84013 32.3312 3.95627 32.168C4.07241 32.0048 4.25447 31.9232 4.50245 31.9232C4.74834 31.9232 4.92936 32.0022 5.0455 32.1602C5.16164 32.3171 5.22128 32.5599 5.22442 32.8884V33.2651ZM4.93407 32.868C4.93407 32.6221 4.89954 32.4432 4.83048 32.3312C4.76142 32.2182 4.65208 32.1617 4.50245 32.1617C4.35387 32.1617 4.24558 32.2177 4.17757 32.3297C4.10956 32.4416 4.0745 32.6137 4.07241 32.846V33.3106C4.07241 33.5575 4.10799 33.7401 4.17914 33.8584C4.25133 33.9755 4.36015 34.0341 4.50559 34.0341C4.64894 34.0341 4.75514 33.9787 4.8242 33.8678C4.8943 33.7569 4.93093 33.5821 4.93407 33.3436V32.868Z" fill="#A4C3E0"/>
<path d="M125.619 21.8789L125.613 21.8888C125.662 21.9097 125.619 21.8789 125.619 21.8789Z" fill="#A4C3E0"/>
<path d="M121.345 39.0667C121.345 39.0667 120.728 39.9213 118.686 40.776C116.645 41.6306 113.939 42.1529 110.995 40.2062C108.051 38.2596 107.814 34.7936 108.953 31.8499C110.093 28.9062 113.369 28.4314 116.17 28.6688C118.971 28.9061 120.823 30.7578 120.823 30.7578L125.613 21.8886C125.529 21.8522 125.15 21.6492 123.672 20.7872C121.393 19.4578 117.452 18.4132 111.422 19.0779C105.392 19.7427 101.568 24.1534 99.6948 27.7666C97.8215 31.3799 97.837 39.1843 100.265 43.1024C102.692 47.0206 106.199 50.5092 113.369 51.1739C120.538 51.8386 126.188 47.8029 126.188 47.8029L121.345 39.0667ZM115.695 46.7821C111.849 46.9245 108.241 45.4527 106.556 43.7672C104.87 42.0816 102.52 38.9422 102.852 34.7551C103.185 30.5679 104.395 27.8853 107.458 25.4164C110.52 22.9475 113.606 23.1357 115.102 23.1137C116.723 23.0898 120.562 24.1345 120.562 24.1345L119.945 25.3927C119.945 25.3927 116.764 24.0395 113.749 24.3719C110.734 24.7042 107.743 25.6538 105.915 28.7875C104.087 31.9211 103.351 34.295 104.538 38.3783C105.725 42.4615 109.76 44.6218 111.161 45.1441C112.562 45.6663 116.194 45.8088 117.808 45.4052C119.422 45.0016 120.372 44.2894 120.372 44.2894L120.918 45.3815C120.918 45.3815 119.541 46.6397 115.695 46.7821V46.7821Z" fill="#A4C3E0"/>
<path d="M32.4148 86.0132H34.2494V75.7047H32.4148V86.0132ZM36.4672 86.0132H38.3017V75.7047H36.4672V86.0132ZM42.6744 86.0132H44.509V77.3645H47.6685V75.7047H39.5149V77.3645H42.6744V86.0132ZM53.2321 86.0132H55.0667V81.7471H56.3771C58.5611 81.7471 60.4976 81.2812 60.4976 78.6895C60.4976 76.4036 58.6921 75.7047 56.6974 75.7047H53.2321V86.0132ZM55.0667 80.1746V77.2772H56.3771C57.3672 77.2772 58.5756 77.4519 58.5756 78.7186C58.5756 80.1164 57.2216 80.1746 56.1732 80.1746H55.0667ZM59.9022 86.0132H61.9551L62.887 83.6545H67.3569L68.3179 86.0132H70.4145L65.9737 75.7047H64.3867L59.9022 86.0132ZM63.5131 82.082L65.1292 77.8887L66.7163 82.082H63.5131ZM72.3347 86.0132H74.1693V77.3645H77.3288V75.7047H69.1752V77.3645H72.3347V86.0132ZM78.5841 86.0132H80.4187V78.1071H80.4478L85.5438 86.0132H87.8734V75.7047H86.0389V83.3633H86.0097L81.0157 75.7047H78.5841V86.0132ZM89.0222 86.0132H91.0752L92.007 83.6545H96.4769L97.4379 86.0132H99.5345L95.0937 75.7047H93.5067L89.0222 86.0132ZM92.6331 82.082L94.2492 77.8887L95.8363 82.082H92.6331Z" fill="white"/>
</svg>
