<svg width="1486" height="366" viewBox="0 0 1486 366" fill="none" xmlns="http://www.w3.org/2000/svg">
<path d="M143.031 201.256L0 292.39V365.804H1486V146.828L1220.19 0L856.918 234.165L835.4 211.382L664.523 172.143L511.366 245.557V239.228L527.821 222.773L265.809 146.828L143.031 201.256Z" fill="url(#paint0_linear_263:409)"/>
<path d="M283.53 110.121L143.031 201.256L265.81 146.828L527.822 222.774L283.53 110.121Z" fill="url(#paint1_linear_263:409)"/>
<path d="M511.363 239.229L527.818 222.774L664.52 172.144L511.363 246.823V239.229Z" fill="url(#paint2_linear_263:409)"/>
<path d="M856.916 234.165L835.398 211.382L860.714 215.179L1220.19 0L856.916 234.165Z" fill="url(#paint3_linear_263:409)"/>
<path d="M987.291 282.264L856.918 234.165L1221.46 0L987.291 282.264Z" fill="url(#paint4_linear_263:409)"/>
<defs>
<linearGradient id="paint0_linear_263:409" x1="743" y1="0" x2="743" y2="365.804" gradientUnits="userSpaceOnUse">
<stop offset="0.453125" stop-color="#122337"/>
<stop offset="1" stop-color="#0C1B2E"/>
</linearGradient>
<linearGradient id="paint1_linear_263:409" x1="335.426" y1="110.121" x2="335.426" y2="222.774" gradientUnits="userSpaceOnUse">
<stop offset="0.21875" stop-color="white"/>
<stop offset="1" stop-color="#C0C0C0" stop-opacity="0.72"/>
</linearGradient>
<linearGradient id="paint2_linear_263:409" x1="587.942" y1="172.144" x2="587.942" y2="246.823" gradientUnits="userSpaceOnUse">
<stop stop-color="#575757"/>
<stop offset="0.604167" stop-color="white"/>
</linearGradient>
<linearGradient id="paint3_linear_263:409" x1="1027.79" y1="0" x2="1027.79" y2="234.165" gradientUnits="userSpaceOnUse">
<stop offset="0.09375" stop-color="#7C7C7C"/>
<stop offset="0.770833" stop-color="white"/>
</linearGradient>
<linearGradient id="paint4_linear_263:409" x1="1039.19" y1="0" x2="1039.19" y2="282.264" gradientUnits="userSpaceOnUse">
<stop offset="0.354167" stop-color="#1A354E"/>
<stop offset="1" stop-color="#112435" stop-opacity="0"/>
</linearGradient>
</defs>
</svg>
