<svg width="587" height="145" viewBox="0 0 587 145" fill="none" xmlns="http://www.w3.org/2000/svg">
<path d="M56.5 80L0 116V145H587V58.5L482 0.5L338.5 93L330 84L262.5 68.5L202 97.5V95L208.5 88.5L105 58.5L56.5 80Z" fill="url(#paint0_linear)"/>
<path d="M112 44L56.5 80L105 58.5L208.5 88.5L112 44Z" fill="url(#paint1_linear)"/>
<path d="M202 95L208.5 88.5L262.5 68.5L202 98V95Z" fill="url(#paint2_linear)"/>
<path d="M338.5 93L330 84L340 85.5L482 0.5L338.5 93Z" fill="url(#paint3_linear)"/>
<path d="M390 112L338.5 93L482.5 0.5L390 112Z" fill="url(#paint4_linear)"/>
<defs>
<linearGradient id="paint0_linear" x1="293.5" y1="0.5" x2="293.5" y2="145" gradientUnits="userSpaceOnUse">
<stop offset="0.255208" stop-color="#122337"/>
<stop offset="1" stop-color="#264064"/>
</linearGradient>
<linearGradient id="paint1_linear" x1="132.5" y1="44" x2="132.5" y2="88.5" gradientUnits="userSpaceOnUse">
<stop offset="0.21875" stop-color="white"/>
<stop offset="1" stop-color="#C0C0C0" stop-opacity="0.72"/>
</linearGradient>
<linearGradient id="paint2_linear" x1="232.25" y1="68.5" x2="232.25" y2="98" gradientUnits="userSpaceOnUse">
<stop stop-color="#575757"/>
<stop offset="0.604167" stop-color="white"/>
</linearGradient>
<linearGradient id="paint3_linear" x1="406" y1="0.5" x2="406" y2="93" gradientUnits="userSpaceOnUse">
<stop offset="0.09375" stop-color="#7C7C7C"/>
<stop offset="0.770833" stop-color="white"/>
</linearGradient>
<linearGradient id="paint4_linear" x1="410.5" y1="0.5" x2="410.5" y2="112" gradientUnits="userSpaceOnUse">
<stop offset="0.354167" stop-color="#1A354E"/>
<stop offset="1" stop-color="#112435" stop-opacity="0"/>
</linearGradient>
</defs>
</svg>
