<svg width="459" height="119" viewBox="0 0 459 119" fill="none" xmlns="http://www.w3.org/2000/svg">
<path d="M438.076 30.8675C437.195 36.3093 439.812 41.2337 443.837 43.3437C441.023 58.3664 429.717 82.3939 423.354 82.3939C416.991 82.3939 421.886 60.102 428.822 33.5903C430.289 27.9136 415.362 29.1869 412.419 34.2214C407.37 61.1405 396.226 81.7517 389.302 81.7517C386.564 81.7517 386.146 78.3869 386.146 75.4403C386.146 63.4559 392.667 39.4797 393.507 34.4306C394.355 29.4732 387.463 30.5593 382.95 32.7646C381.545 33.5169 371.028 38.7752 365.913 41.2044C362.794 29.6676 349.841 31.1721 347.239 39.9091C345.349 46.2095 350.061 50.2679 354.842 51.1155C354.593 65.0888 346.355 82.8122 336.931 82.8122C325.156 82.8122 330.624 45.1674 345.768 35.913C344.924 31.0767 338.616 30.4456 332.726 32.9775C321.443 37.7955 314.43 55.9519 315.432 71.0333C311.029 77.8805 306.626 82.1884 303.914 82.1884C302.652 82.1884 301.18 80.9298 301.18 77.7851C301.18 68.9527 305.583 44.3454 308.119 27.943C309.803 16.1641 307.701 1.86426 291.717 1.86426C280.514 1.86426 274.265 12.568 269.726 29.2053H262.904C259.969 29.2053 258.277 36.779 261.436 36.9882C262.456 37.0799 264.904 37.0909 267.792 37.0762C266.963 40.7714 266.185 44.683 265.432 48.7671C265.038 50.8611 264.659 53.0224 264.295 55.251C258.57 67.2244 245.184 83.6782 233.255 83.6782C227.725 83.6782 225.799 76.9888 226.136 68.7105C258.567 70.1526 268.529 29.4218 239.563 29.6273C222.316 29.741 211.646 47.9378 210.365 64.7916C205.198 73.3744 196.601 83.8727 188.668 83.8727C171.843 83.8727 183.2 37.8138 194.539 37.8138C199.375 37.8138 198.326 45.5967 195.379 50.855C196.432 57.5848 207.158 58.2159 209.69 46.859C211.58 38.2358 206.325 29.8218 195.177 29.8218C176.643 29.8218 164.996 50.4881 164.89 68.1638C161.334 75.9173 156.71 80.0858 153.327 80.0858C150.593 80.0858 150.171 76.9338 153.536 58.4361C154.377 53.8089 155.217 48.5506 156.061 43.0831C157.309 35.1718 154.021 30.563 147.225 30.4676C147.225 30.4676 146.44 30.4676 146.164 30.4969C141.42 30.7611 135.079 32.794 128.371 37.4689C124.335 28.0164 112.857 29.8915 110.424 38.2358C108.534 44.8408 113.246 48.9836 118.027 49.8533C117.756 64.2632 109.525 82.6104 100.117 82.6104C88.3413 82.6104 93.8088 43.7143 108.949 34.2398C108.109 29.1906 101.801 28.5595 95.9114 31.084C75.5129 39.7072 69.2015 92.9142 97.8048 92.9142C120.486 92.9142 129.322 60.7442 129.758 46.5287C133.428 43.7987 137.505 41.652 139.783 41.597H139.868C140.917 41.597 141.335 42.019 141.126 43.2776C139.86 52.9503 136.51 69.3527 136.51 78.185C136.51 87.2302 139.035 92.9068 146.818 92.9068C154.127 92.9068 161.338 86.4266 166.266 78.2291C168.834 86.7202 175.142 92.9068 185.938 92.9068C196.634 92.9068 205.162 84.3387 211.022 76.0274C213.058 85.6413 219.095 92.9068 229.894 92.9068C244.847 92.9068 255.815 80.9628 262.141 69.8334C261.752 72.7689 261.378 75.7815 261.018 78.8162C258.915 95.8534 257.235 102.792 254.497 108.906C253.374 111.428 252.111 113.885 250.714 116.267C249.661 118.16 250.923 119 252.608 119C256.391 119 262.489 116.689 266.276 110.377C269.85 104.506 273.428 98.6018 277.211 64.7402C278.048 57.471 279.182 46.9837 280.815 36.9808H284.994C288.781 36.9808 292.355 29.8291 287.93 29.4108C287.152 29.3374 285.013 29.2934 282.198 29.2603C284.587 17.3567 287.842 7.74638 292.348 7.74638C296.553 7.74638 297.393 14.267 295.503 24.7836C292.348 41.186 289.405 61.7973 288.143 73.5872C286.675 87.4651 291.295 92.9325 299.077 92.9325C305.209 92.9325 311.998 87.3183 317.19 80.0895C319.828 87.6082 325.398 92.9325 334.62 92.9325C355.433 92.9325 364.588 66.663 366.291 51.6953C369.324 50.6878 372.291 49.4917 375.174 48.1139C373.175 58.4911 371.633 69.9214 371.633 76.5301C371.633 86.2028 376.47 92.7234 383.831 92.7234C394.674 92.7234 402.108 82.5076 406.581 74.0092C406.552 85.2047 410.845 92.9362 421.05 92.9362C443.133 92.9362 458.695 48.1433 458.695 33.8398C458.687 18.252 439.973 18.8795 438.076 30.8675ZM239.966 37.5973C248.806 37.5973 242.289 60.4433 226.83 61.9257C228.789 49.9964 234.293 37.5973 239.966 37.5973Z" fill="white"/>
<path fill-rule="evenodd" clip-rule="evenodd" d="M151.216 23.2978C163.626 23.2978 166.36 1.84619 153.322 1.84619C141.122 1.84619 138.601 23.2978 151.216 23.2978Z" fill="white"/>
<path fill-rule="evenodd" clip-rule="evenodd" d="M56.15 3.3171C60.146 5.62885 66.0318 13.8301 63.7201 31.4984C59.9332 59.6798 44.7931 82.8119 39.7439 82.8119C36.8084 82.8119 37.0102 78.4086 40.797 61.9915C45.8425 40.5399 52.7851 10.0469 25.4441 10.0469C-3.57754 10.0469 -7.15525 41.1711 11.5626 44.958C8.82885 30.4453 17.452 16.7766 25.6533 16.7766C34.4856 16.7766 30.7024 33.8102 27.121 52.1097C22.9158 73.3484 18.0795 97.5338 34.9039 97.5338C58.2489 97.5338 75.7045 54.4215 78.8602 31.4838C82.8672 2.47313 65.1989 -5.30609 56.15 3.3171Z" fill="white"/>
</svg>
