<svg width="182" height="61" viewBox="0 0 182 61" fill="none" xmlns="http://www.w3.org/2000/svg">
<path d="M80.8239 10.9396C79.723 9.49109 77.8304 8.81513 76.0342 8.81513C71.824 8.81513 68.9077 11.8666 68.9077 16.1155C68.9077 19.5532 71.5922 23.1841 75.9377 23.1841C79.0664 23.1841 80.708 21.3493 81.1136 20.7892L79.5492 19.6111C78.7381 20.7506 77.5407 21.4459 75.9763 21.4459C72.7896 21.4459 70.8776 18.9931 70.8776 16.1155C70.8776 13.0061 72.9055 10.5533 75.9763 10.5533C77.2316 10.5533 78.5063 11.1134 79.2788 12.1177L80.8239 10.9396ZM84.6112 18.2592C84.6112 16.4052 85.77 15.0726 87.624 15.0726C89.4781 15.0726 90.6369 16.4052 90.6369 18.2592C90.6369 20.1133 89.4781 21.4459 87.624 21.4459C85.77 21.4459 84.6112 20.1133 84.6112 18.2592ZM82.7571 18.2592C82.7571 20.9244 84.9009 23.0682 87.624 23.0682C90.3472 23.0682 92.4909 20.9244 92.4909 18.2592C92.4909 15.594 90.3472 13.4503 87.624 13.4503C84.9009 13.4503 82.7571 15.594 82.7571 18.2592ZM104.132 8.23574H102.394V14.9953H102.355C101.737 14.049 100.482 13.4503 99.1684 13.4503C96.3487 13.4503 94.514 15.5168 94.514 18.2592C94.514 20.9631 96.3294 23.0682 99.1684 23.0682C100.404 23.0682 101.679 22.5081 102.355 21.5231H102.394V22.8364H104.132V8.23574ZM99.3809 21.4459C97.5268 21.4459 96.368 20.1133 96.368 18.2592C96.368 16.4052 97.5268 15.0726 99.3809 15.0726C101.235 15.0726 102.394 16.4052 102.394 18.2592C102.394 20.1133 101.235 21.4459 99.3809 21.4459ZM107.209 22.8364H108.947V13.682H107.209V22.8364ZM106.803 10.3988C106.803 11.0941 107.382 11.6735 108.078 11.6735C108.773 11.6735 109.352 11.0941 109.352 10.3988C109.352 9.70354 108.773 9.12414 108.078 9.12414C107.382 9.12414 106.803 9.70354 106.803 10.3988ZM112.003 22.8364H113.741V18.124C113.741 15.9996 114.842 15.0726 116.29 15.0726C117.391 15.0726 118.376 15.7099 118.376 17.4288V22.8364H120.114V16.9459C120.114 14.5125 118.569 13.4503 116.792 13.4503C115.383 13.4503 114.224 14.1262 113.78 15.0919H113.741V13.682H112.003V22.8364ZM132.198 13.682H130.46V14.9953H130.421C129.745 14.0104 128.47 13.4503 127.234 13.4503C124.395 13.4503 122.58 15.5554 122.58 18.2592C122.56 20.9244 124.55 22.9523 127.234 22.9523C128.49 22.9523 129.745 22.4309 130.402 21.33H130.46V22.6819C130.46 24.227 129.745 25.8493 127.157 25.8493C125.824 25.8493 124.801 25.3278 123.893 24.3622L122.715 25.83C124.009 27.0274 125.457 27.4716 127.196 27.4716C130.189 27.4716 132.198 25.5209 132.198 22.7592V13.682ZM127.447 15.0726C129.301 15.0726 130.46 16.4052 130.46 18.2592C130.46 20.1133 129.301 21.33 127.447 21.33C125.593 21.33 124.434 20.1133 124.434 18.2592C124.434 16.4052 125.593 15.0726 127.447 15.0726ZM152.296 10.9396C151.195 9.49109 149.302 8.81513 147.506 8.81513C143.296 8.81513 140.38 11.8666 140.38 16.1155C140.38 19.5532 143.064 23.1841 147.41 23.1841C150.538 23.1841 152.18 21.3493 152.586 20.7892L151.021 19.6111C150.21 20.7506 149.013 21.4459 147.448 21.4459C144.262 21.4459 142.35 18.9931 142.35 16.1155C142.35 13.0061 144.377 10.5533 147.448 10.5533C148.704 10.5533 149.978 11.1134 150.751 12.1177L152.296 10.9396ZM154.808 22.8364H156.547V8.23574H154.808V22.8364ZM167.714 13.682H165.976V18.3944C165.976 20.5189 164.875 21.4459 163.427 21.4459C162.326 21.4459 161.341 20.8086 161.341 19.0897V13.682H159.603V19.5725C159.603 22.006 161.148 23.0682 162.925 23.0682C164.334 23.0682 165.493 22.3922 165.937 21.4266H165.976V22.8364H167.714V13.682ZM170.624 22.8364H172.362V21.5231H172.401C173.077 22.5081 174.351 23.0682 175.587 23.0682C178.426 23.0682 180.242 20.9631 180.242 18.2592C180.242 15.5168 178.407 13.4503 175.587 13.4503C174.274 13.4503 173.019 14.049 172.401 14.9953H172.362V8.23574H170.624V22.8364ZM175.375 21.4459C173.521 21.4459 172.362 20.1133 172.362 18.2592C172.362 16.4052 173.521 15.0726 175.375 15.0726C177.229 15.0726 178.388 16.4052 178.388 18.2592C178.388 20.1133 177.229 21.4459 175.375 21.4459Z" fill="white"/>
<path d="M70.7575 48.1724H72.6115V34.4987H70.7575V48.1724ZM76.1327 48.1724H77.9868V34.4987H76.1327V48.1724ZM84.3663 48.1724H86.2203V36.2369H90.6237V34.4987H79.9629V36.2369H84.3663V48.1724ZM104.733 40.5244V42.2626H107.765V46.0672C106.934 46.5308 105.698 46.7818 104.404 46.7818C101.391 46.7818 99.0932 44.4256 99.0932 41.3355C99.0932 38.342 101.121 35.8892 104.25 35.8892C105.621 35.8892 106.915 36.2562 108.035 37.3377L109.348 35.9279C108.286 34.827 106.761 34.1511 104.25 34.1511C100.078 34.1511 97.1233 37.2798 97.1233 41.3355C97.1233 45.2175 99.8078 48.52 104.443 48.52C106.104 48.52 108.286 48.0758 109.619 47.2646V40.5244H104.733ZM120.672 39.018H118.934V43.7304C118.934 45.8548 117.833 46.7818 116.385 46.7818C115.284 46.7818 114.299 46.1445 114.299 44.4256V39.018H112.561V44.9085C112.561 47.3419 114.106 48.4041 115.882 48.4041C117.292 48.4041 118.451 47.7282 118.895 46.7625H118.934V48.1724H120.672V39.018ZM125.204 48.1724H127.078L129.26 41.3355H129.299L131.713 48.1724H133.47L136.425 39.018H134.59L132.62 45.8548H132.582L130.264 39.018H128.429L126.247 45.8548H126.208L124.142 39.018H122.191L125.204 48.1724ZM139.028 41.2197C139.666 40.7368 140.303 40.1767 141.636 40.1767C143.123 40.1767 143.818 41.1617 143.818 42.1081V42.4943H142.543C139.762 42.4943 137.503 43.3055 137.503 45.6617C137.503 47.4385 138.97 48.4041 140.67 48.4041C142.06 48.4041 143.103 47.9599 143.876 46.7818H143.915C143.915 47.2453 143.934 47.7088 143.972 48.1724H145.517C145.46 47.6895 145.44 47.1488 145.44 46.5114V41.8377C145.44 40.254 144.32 38.7862 141.616 38.7862C140.342 38.7862 138.951 39.2304 137.985 40.1381L139.028 41.2197ZM143.818 43.769V44.3484C143.818 45.5844 143.142 47.0136 141.211 47.0136C140.013 47.0136 139.241 46.5694 139.241 45.5265C139.241 44.0587 141.249 43.769 142.891 43.769H143.818ZM147.962 48.1724H149.7V43.46C149.7 41.3355 150.801 40.4085 152.249 40.4085C153.35 40.4085 154.335 41.0458 154.335 42.7647V48.1724H156.073V42.2819C156.073 39.8484 154.528 38.7862 152.751 38.7862C151.341 38.7862 150.183 39.4622 149.738 40.4278H149.7V33.5717H147.962V48.1724ZM159.775 41.2197C160.412 40.7368 161.049 40.1767 162.382 40.1767C163.869 40.1767 164.564 41.1617 164.564 42.1081V42.4943H163.29C160.509 42.4943 158.249 43.3055 158.249 45.6617C158.249 47.4385 159.717 48.4041 161.416 48.4041C162.807 48.4041 163.85 47.9599 164.622 46.7818H164.661C164.661 47.2453 164.68 47.7088 164.719 48.1724H166.264C166.206 47.6895 166.187 47.1488 166.187 46.5114V41.8377C166.187 40.254 165.067 38.7862 162.363 38.7862C161.088 38.7862 159.698 39.2304 158.732 40.1381L159.775 41.2197ZM164.564 43.769V44.3484C164.564 45.5844 163.888 47.0136 161.957 47.0136C160.76 47.0136 159.987 46.5694 159.987 45.5265C159.987 44.0587 161.996 43.769 163.637 43.769H164.564ZM173.614 39.018H171.122V36.4493H169.384V39.018H167.376V40.5244H169.384V45.2947C169.384 46.7625 169.423 48.4041 172.107 48.4041C172.455 48.4041 173.266 48.3269 173.672 48.0951V46.5114C173.324 46.7239 172.841 46.7818 172.436 46.7818C171.122 46.7818 171.122 45.7003 171.122 44.6767V40.5244H173.614V39.018ZM176.01 48.1724H177.748V39.018H176.01V48.1724ZM175.605 35.7347C175.605 36.43 176.184 37.0094 176.879 37.0094C177.575 37.0094 178.154 36.43 178.154 35.7347C178.154 35.0395 177.575 34.4601 176.879 34.4601C176.184 34.4601 175.605 35.0395 175.605 35.7347Z" fill="white"/>
<path d="M17.3869 30.646L43.119 12.4002L43.1031 0.000254279L0 30.5516" fill="#A4C3E0"/>
<path d="M44.1471 30.5515L1.04403 0.000240074L1.02814 12.4001L26.7601 30.6458L0.980469 48.4264V60.8364L44.1471 30.5515Z" fill="#4386C4"/>
<path d="M0 30.5515L43.1666 60.8364V48.4264L17.3869 30.6458" fill="#A4C3E0"/>
</svg>
