<svg id="Layer_2" data-name="Layer 2" xmlns="http://www.w3.org/2000/svg" viewBox="0 0 1357.13501 794.35028"><defs><style>.cls-1{fill:#3c87c5;}.cls-2,.cls-6,.cls-7{fill:#103140;}.cls-3{fill:#23c0f4;}.cls-4,.cls-6{font-size:31.72235px;}.cls-4,.cls-5{fill:#28d0f7;}.cls-4,.cls-5,.cls-6,.cls-7{font-family:CenturyGothic-Bold, Century Gothic;font-weight:700;}.cls-5,.cls-7{font-size:34.99231px;}.cls-8{font-size:149.21494px;fill:#fff;font-family:FranklinGothic-Heavy, Franklin Gothic Heavy;font-weight:800;letter-spacing:0.076em;}.cls-9{letter-spacing:0.03303em;}.cls-10{letter-spacing:0.03792em;}.cls-11{letter-spacing:0.076em;}</style></defs><path class="cls-1" d="M1391.65955,422.82l20.93615-18.383-37.78711-20.93616,37.78711-22.46808L1398.29785,338.054l-38.80847,21.44677-.51062-41.87231-26.55322,5.617,1.532,51.06385-21.4469,12.25531-2.5531-61.78724L1283.4043,330.905l1.53186,71.48938-74.5531,42.89361L1217.532,398.82l-42.383,5.617,14.80859-30.12762,71.48926-11.23407,2.0426-29.617-55.14893,8.68085,16.34046-25.53192-23.4895-14.80853-14.29786,26.0426-24-50.0426-19.91479,12.766L1168,357.96887l-19.91492,37.27661-19.40417-46.46808L1096,376.86249l1.02124-80.68085,60.766-37.78723-10.21277-26.04254L1097.532,262.47955l-1.02136-24.51068,45.27661-23.82977-11.57446-27.91492L1094.468,208.01141V160.35187h-28.25525v46.9787l-37.78723-20.08509-7.82978,23.82978,45.617,27.57446.68078,26.55322-53.10632-33.36169-8.17023,24.51062,59.915,38.80853v84.08508l-35.064-29.27661-14.97864,44.59577L994.383,360.52209l25.53192-68.42553-23.149-14.63831-20.08508,53.10639-16.3404-28.59577-20.08514,14.97876,15.31915,27.234-57.53192-9.87231v27.234l71.82977,11.23407,21.78724,35.40424-48.3404-6.46808,8.93616,45.617L881.0213,406.82l-4.766-76.93616-26.55316-2.383V390.82l-20.42554-10.89362V321.71356L803.06384,317.288v45.617l-41.19153-24.851L750.9787,360.18164l39.82983,24.85107L753.36169,405.1178,768,425.20294l48-24.85107,25.87231,13.617-68.08508,27.57446,19.06384,23.48938,77.617-35.06384,66.04254,39.82978-41.19147,17.70214,29.95746,37.44684H884.08508l-42.89361-60-29.10639,13.78723,35.23407,46.21277H815.91492V548.437h32.17016L809.0213,594.39441l26.80847,10.72339L885.617,550.73486h38.29792l-29.10639,36,41.3617,18.38294-73.53192,42.12768-72-42.12768-10.72339,24.51068,52.851,32.93616L814.383,673.288l-45.95746-29.87231-11.48938,20.68085,33.70215,21.44677L750.9787,713.1178l12.08514,19.91491L805.95746,710.054l-2.29791,42.89361H832l-.76593-56.68085L849.617,685.54333l1.53193,62.04261,26.04254-5.36176.766-70.46808,74.29785-45.19146-7.65955,42.89361,44.42554-2.04254-19.149,33.70209-71.74462,10.97876.76593,24.76593,55.65954-7.14893-16.851,27.06384,21.44678,14.80854,17.87237-27.06385,18.89362,50.04255,23.48932-12.25531-24-69.44684,18.383-33.70209,17.3617,42.89362,36.25537-28.59577V780.7774l-60.766,35.74469,8.68084,25.02124,52.08515-30.6383-1.02124,23.48938-43.915,25.53192,7.14886,25.0213,36.76612-20.93622.51049,44.93622H1094.468l.51074-43.91492,36.76587,21.44684,7.65967-25.53192-44.42554-26.0426L1096,810.39441l52.5957,30.12768,7.65967-25.0213-62.80859-36.25531-.51062-85.27661,37.78723,30.63831,17.36169-45.95746,21.4469,34.21277-26.55322,68.93616,23.48926,13.78729,19.40429-54.63831,16.85108,28.5957,20.93616-11.74468-14.29786-28.08509,54.12769,9.70215v-25.0213l-72.51062-13.78723-17.87231-34.21277,44.42553,7.14892-5.61706-45.95739,72,42.89361v71.48932l28.5957,6.63831V686.30933L1331.4043,698.054v52.5957L1360,757.79865V714.39441l39.82983,22.46808,12.76587-25.53192-38.29785-21.44678,38.29785-24.51062L1391.14893,644.437,1346.21277,674.054l-18.89368-12.766,54.63843-32.68084-20.93628-20.42554-62.29785,37.78723-76.08508-41.36169,46.46814-18.89362-33.19153-36.25531,39.82971.51062,42.38306,52.08515,26.55322-14.29792-35.74475-41.36169h40.34045V521.37317l-36.766-.51068,34.21277-38.29785-25.532-12.766-41.87232,52.59576H1240l27.57446-35.74469-41.87231-17.87232,70.468-40.34045,61.78735,31.149,21.9574-19.4043-53.61707-28.5957,20.42554-12.25537Zm-385.19147,15.05236,32.17023,59.23407L978.72339,461.0213l-2.38294-28.93622Zm-43.40424,48.68085,60.59571,35.06384H954.89362l-19.40424-23.82977ZM935.48938,572l22.46808-23.82977,64,2.38293-56.17023,32Zm69.78723,60.42554-30.97876,4.93615,5.44684-28.25531,58.89362-34.72338Zm58.89356,22.9787-24.51062,21.10638-9.87232-30.63831,34.38294-57.53186Zm0-172.93616-34.38294-60.59577L1040,394.63831l24.17017,19.06384Zm153.87231,14.97876-20.085,24.17016h-67.4043l60.25537-35.06384Zm-65.36157-60.93622,27.57446-4.42554-4.42554,29.61707-57.87231,33.02124Zm-59.57446-23.48932,22.468-18.383,11.57447,27.91485L1093.10645,478.383Zm22.80847,261.78723-24.51062-17.36169,1.70215-69.10639,34.04248,59.57447Zm35.40417-41.19153-33.36157-59.234,57.19141,34.38293,5.10644,28.59576Zm37.78736-51.06384-58.55323-34.38293h67.4043l21.78711,24.51062Z" transform="translate(-248.99268 -160.35187)"/><g id="Layer_3" data-name="Layer 3"><path class="cls-2" d="M298.383,367.06383h42.383a23.86644,23.86644,0,0,1,17.87234,11.234c6.6383,10.72341,93.95744,178.21277,93.95744,178.21277l2.04256-177.19149s-2.55319-9.70213,5.617-12.25532,54.6383,0,54.6383,0-2.55319,326.80851-4.08511,330.383a14.132,14.132,0,0,1-4.59574,5.617H461.10638s-7.82978.34043-10.89361-4.42553-93.10639-181.10639-93.10639-181.10639-4.0851-3.40425-3.40425,12.25532.34042,162.72341.34042,162.72341-1.3617,6.12766-3.40425,7.82979-7.82979,2.72872-7.82979,2.72872H257.78723s-8.42553-.516-8.68085-15.32447,0-302.55319,0-302.55319.766-20.14184,10.72341-19.26241S298.383,367.06383,298.383,367.06383Z" transform="translate(-248.99268 -160.35187)"/><path class="cls-2" d="M793.70215,369.10638,753.87231,486.55316,715.57446,369.10638H642.80853l-36,117.44678L567.74469,369.10638s-107.48938-2.04254-111.00214,0,1.47022,18.383,1.47022,18.383L563.91492,703.06915h83.48932l31.40429-97.19684,35.234,97.19684h84.25531l108-333.96277Zm-36.766,294.99018h-9.44678L680.89325,449.27661,614.9787,661.19147l-13.27655-1.02124L518.72339,408.93182H530.9787l76.59576,228.42987L680.89325,412,750.9787,637.36169l77.95746-228.42987h14.55322Z" transform="translate(-248.99268 -160.35187)"/><rect class="cls-3" x="20.79456" y="351.98856" width="66.6383" height="170.04255"/><text class="cls-4" transform="translate(58.77039 311.06711) scale(0.9485 1)">1</text><text class="cls-4" transform="translate(58.25573 263.50605) scale(0.9485 1)">1</text><text class="cls-5" transform="translate(32.94329 289.9953) scale(0.97601 1)">0</text><text class="cls-5" transform="translate(33.8993 341.77203) scale(0.97601 1)">0</text><text class="cls-6" transform="translate(65.66384 357.30276) scale(0.9485 1)">1</text><text class="cls-7" transform="translate(42.055 517.26952) scale(0.97601 1)">0</text><text class="cls-6" transform="translate(58.12778 394.8345) scale(0.9485 1)">1</text><text class="cls-6" transform="translate(22.12785 394.83475) scale(0.9485 1)">1</text><text class="cls-6" transform="translate(29.53209 457.13237) scale(0.9485 1)">1</text><text class="cls-6" transform="translate(46.12784 484.45152) scale(0.9485 1)">1</text><text class="cls-6" transform="translate(69.2303 527.85577) scale(0.9485 1)">1</text><text class="cls-6" transform="translate(22.63848 497.98343) scale(0.9485 1)">1</text><text class="cls-7" transform="translate(74.99112 492.7588) scale(0.97601 1)">0</text><text class="cls-7" transform="translate(55.33155 452.16306) scale(0.97601 1)">0</text><text class="cls-7" transform="translate(38.99112 424.07796) scale(0.97601 1)">0</text><text class="cls-7" transform="translate(11.92729 434.35603) scale(0.97601 1)">0</text><text class="cls-7" transform="translate(38.7358 370.97157) scale(0.97601 1)">0</text></g><path class="cls-2" d="M1600,395.65955l-.05469.10113C1600.43762,395.97278,1600,395.65955,1600,395.65955Z" transform="translate(-248.99268 -160.35187)"/><path class="cls-2" d="M1554.04248,580.51062s-6.63818,9.19153-28.5957,18.383-51.06372,14.80853-82.72339-6.12769-34.21277-58.21277-21.95752-89.87231,47.4895-36.76593,77.61719-34.21277,50.04248,22.46808,50.04248,22.46808l51.51977-95.38825c-.90771-.39117-4.98828-2.57477-20.88147-11.84576-24.51062-14.29792-66.89367-25.53192-131.74475-18.383s-105.98071,54.58624-126.12768,93.44678-19.98047,122.79681,6.12768,164.93622,63.82984,79.65954,140.93628,86.80847,137.87232-36.25531,137.87232-36.25531Zm-60.76587,82.97876c-41.36169,1.53192-80.17016-14.29791-98.29785-32.42554s-43.4043-51.892-39.82983-96.92474,16.5957-73.88379,49.532-100.43695c32.936-26.55322,66.12939-24.52863,82.21264-24.766,17.43152-.25727,58.72339,10.97876,58.72339,10.97876l-6.63818,13.53192s-34.21289-14.55322-66.63831-10.97876-64.59582,13.78723-84.25537,47.48938-27.57446,59.234-14.80847,103.14892,56.17017,67.14893,71.234,72.76593,54.12769,7.149,71.48938,2.80854,27.57446-12,27.57446-12l5.87232,11.74469S1534.63831,661.95746,1493.27661,663.48938Z" transform="translate(-248.99268 -160.35187)"/><text class="cls-8" transform="translate(0.00023 748.59576)">IIT <tspan class="cls-9" x="248.56445" y="0">P</tspan><tspan class="cls-10" x="349.44824" y="0">A</tspan><tspan class="cls-11" x="450.25977" y="0">TNA</tspan></text></svg>